<?xml version="1.0" encoding="utf-8"?>
<!-- Generator: Adobe Illustrator 24.0.1, SVG Export Plug-In . SVG Version: 6.00 Build 0)  -->
<svg version="1.1" id="Capa_1" xmlns="http://www.w3.org/2000/svg" xmlns:xlink="http://www.w3.org/1999/xlink" x="0px" y="0px"
	 viewBox="0 0 976.9 922" style="enable-background:new 0 0 976.9 922;" xml:space="preserve">
<style type="text/css">
	.st0{opacity:0.7;}
	.st1{fill:#FFFFFF;}
	.st2{fill:#FCF6F1;}
</style>
<g class="st0">
	<g>
		<path class="st1" d="M717.4,874.5c0.1,0.7-0.5,1.2-1.2,1c-23.8-9-48-18.1-68.8-33C631,830.6,616.6,815,609,796.1
			c-9.2-23-5.8-48.1-8.6-72.1c-1.5-13.2-4.7-26-8.5-38.7c-1-1.6-1.8-3.2-2.7-4.9c4,18.3,5.3,38-0.4,56c-2.5,8-6.9,15.8-13.6,21
			c-7.9,6.1-18.2,6.6-26.3,12.3c-0.4,0.3-1.2,0.3-1.4-0.3c-4.5-12.5-5.2-26.2-2.5-39.2c2.4-11.5,7.4-22.4,14.8-31.5
			c7.6-9.3,20.8-16.7,20.4-30.3c-0.3-7.5-2.7-15.1-4.4-22.3c-1.1-4.6-2.3-9.2-3.5-13.8c-2.2-5.9-4.3-11.7-6.4-17.5
			c-0.1,0.8-0.3,1.6-0.5,2.4c0.2,5.8-0.6,11.6-3.3,17.2c-4.5,9.4-11.9,16.9-17.3,25.7c-6,9.6-10.1,20.5-12.1,31.7
			c-2.1,11.7-1.2,23.7-3.2,35.5c-1.7,9.9-5.9,19-11.8,27c-5.9,8-13.3,14.9-20.9,21.3c-3.9,3.3-7.9,6.4-12,9.5
			c-2.2,1.7-5,3.8-7.8,4.1c0,0,0,0.1,0,0.1c-0.3,0.9-1.5,0.6-1.7-0.2c-0.8-0.1-1.6-0.5-2.3-1c-3.3-2.5-3.6-7.7-4.3-11.4
			c-1-5.2-1.9-10.4-2.6-15.7c-1.4-10.4-2.1-21.1-0.7-31.6c1.4-10.5,5.1-20.3,11.2-28.9c6.7-9.5,15.3-17.8,23.5-25.9
			c8.9-8.9,18.1-17.5,27.5-25.9c4.6-4.1,9.3-8.1,14-12c4.4-3.7,9.2-7.1,12.9-11.6c7.3-9,6.2-20.8,3.9-31.4
			c-2.6-12.4-5.9-24.6-9.3-36.8c-0.9-3.3-1.9-6.6-2.8-9.9l3.6-5.4c6.1,20.6,12.2,41.2,18.4,61.8c1.9,6.3,3.6,12.7,5.5,19
			c3.6,9.8,7.3,19.6,11,29.4c3.5,6.6,7.9,12.7,13.8,17.3c18.7,14.5,44.4,8.2,65.9,13.7c38.5,9.9,66.6,50.5,62,90.4
			c-0.1,0.7-0.8,1-1.4,0.6c-8.5-5.3-17.8-8.2-27.4-10.2c2.6,5.8,4.6,11.8,6.3,17.9c3.8,13.8,5.7,28.1,7.5,42.2
			C714,840.4,715.8,857.4,717.4,874.5z M557.4,571.9c-2.6-8.8-5.2-17.6-7.8-26.4c0.1,0.4,0.2,0.8,0.3,1.1
			C552.3,555.1,554.9,563.5,557.4,571.9z M563.6,623.9c-1.8,5.2-4.4,10.1-7.3,14.8c-7.2,11.3-16.9,20.7-25.5,30.9
			c-9.2,10.8-16.5,22.9-22.5,35.8c-6.1,13-11,26.6-16,40c-5.1,13.8-9.9,27.7-14.5,41.7c1.8-0.4,3.6-1.7,5-2.8
			c15.5-11.6,32-24.6,40.5-42.5c4.8-10.1,5.7-20.9,6.2-31.9c0.5-11.1,1.7-22,5.3-32.6c3.4-9.9,8.6-18.8,14.8-27.1
			C555.6,642.2,562.1,634,563.6,623.9z M563.9,616.9c-0.2-4.1-0.9-8.2-1.8-12.2c0-0.1-0.1-0.3-0.1-0.4c0.3,4.2,0.1,8.5-1.1,12.5
			c-1.4,4.7-4.1,8.6-7.5,12c-4,4-8.5,7.3-12.8,10.9c-4.7,4-9.4,8-13.9,12.1c-9.1,8.1-17.9,16.5-26.5,25.1
			c-8.1,8.1-16.5,16.2-22.9,25.7c-6.1,9-9.3,19.3-10.3,30c-1,10.5,0,21.2,1.5,31.6c0.8,5.1,1.7,10.2,2.7,15.3c0.5,2.4,0.9,5.5,3,7
			c0.6,0.4,1.1,0.6,1.7,0.7c5.2-15.9,10.8-31.6,16.6-47.3c4.9-13.2,9.9-26.4,16.1-39.1c6.1-12.4,13.5-23.8,22.5-34.2
			C543.7,651.9,559.7,636.2,563.9,616.9z M723.2,770.2c-7-11.5-15.5-22.1-25.2-31.4c-8.6-8.3-18.2-15.5-28.5-21.6
			c-11.5-6.7-23.8-11.7-35.9-17c-10.6-4.7-21.5-9.5-30.8-16.5c-2.9-2.2-5.6-4.6-8.1-7.1c1.8,4.8,3.7,9.6,5.6,14.3
			c0.7,1.6,1.3,3.2,2,4.9c15.1,15.2,37.3,20.2,56.5,29c11,5,21.1,11.6,28.8,21.2c3.8,4.7,6.9,9.9,9.5,15.4
			C706.1,763.2,715,765.8,723.2,770.2z M677.1,738c-9.5-7.8-21-12.6-32.3-17c-11-4.3-22.3-8.3-32.4-14.6c-3.1-1.9-5.9-4.1-8.6-6.5
			c3.1,7.2,6.6,14.3,10.7,20.9c5.7,9.1,12.7,17.5,21.6,23.6c8.9,6.1,19.3,9.4,29.8,11.6c9.4,2,19.2,3.1,28.7,5
			C690.4,752.2,684.7,744.2,677.1,738z M588.3,660.4c1.5,3.8,2.9,7.7,4.4,11.5c4.6,5.3,9.8,9.9,15.9,13.8
			c10.6,6.8,22.4,11.5,33.9,16.5c11.6,5,23.2,10.3,33.9,17.3c19.7,12.8,36.3,30.1,48.5,50.2c0.4,0.6-0.1,1.1-0.7,1.2
			c0.3,0.2,0.5,0.3,0.8,0.5c2.2-22.6-6.3-45.1-21-62c-6.7-7.6-14.7-14.1-23.7-18.9c-9.3-4.9-19.2-7.5-29.6-8.5
			c-11.4-1.1-22.9-0.8-34.1-3.3c-10.7-2.4-20.1-7.8-26.9-16.6C589.2,661.5,588.8,661,588.3,660.4z M581.6,648.7
			c0.9,2.7,1.9,5.3,2.8,8c0.9,2.5,1.8,5.1,2.6,7.6c0.7,1,1.4,2,2.1,3c-1.9-5-3.8-9.9-5.7-14.9C582.8,651.2,582.2,649.9,581.6,648.7z
			 M585.4,665.1C585.4,665,585.4,665,585.4,665.1c0.5,1.7,1,3.4,1.4,5.2c0.5,1.4,1.1,2.8,1.7,4.2c0,0,0,0,0.1,0
			C587.5,671.3,586.5,668.2,585.4,665.1z M550.4,766.8c-0.6,0-1.3-0.7-0.8-1.4c5.1-7.6,10.2-15.2,15.2-22.8
			c4.1-6.3,7.9-12.8,10.5-19.8c2.5-6.6,4.2-13.4,5.3-20.4c2-12.6,2.2-25.4,2.2-38.2c-1.1-3.2-2.1-6.4-3-9.7
			c1.4,5.5,2.7,11.3,2.2,16.9c-1.2,12.2-13,19.1-20.2,27.8c-15.6,18.7-20.7,45.5-12.9,68.5C549.4,767.3,549.9,767,550.4,766.8z
			 M585.6,671.8c-0.3-0.9-0.7-1.8-1-2.7c0,5.3-0.1,10.7-0.4,16c-0.8,14-2.8,28.1-8.3,41.1c-2.9,6.9-6.8,13.2-10.9,19.4
			c-4.6,7-9.3,13.9-13.9,20.9c0,0,0,0,0,0c8.3-4.4,18.1-5.5,25.2-12.1c7.4-6.8,11.2-16.8,13-26.4
			C592.7,708.7,590.4,690.1,585.6,671.8z M596.9,689.7c0.5,0.7,1.1,1.5,1.7,2.2c-1-2.4-1.9-4.9-2.9-7.3c-1.5-3.8-3-7.7-4.4-11.5
			c-0.8-0.9-1.5-1.9-2.3-2.8c1,2.9,1.9,5.8,2.8,8.7C593.5,682.5,595.2,686.1,596.9,689.7z M713,872.3c-9.3-14.1-20-27.2-30.8-40.2
			c-9.7-11.7-19.4-23.3-28.2-35.6c-8.8-12.3-16.9-25.1-24.4-38.2c-12.5-21.9-23.5-44.7-34.3-67.6c3.5,12.5,6.3,25.3,7.4,38.3
			c2,23.8-0.7,48.4,9.8,70.7C631.2,839.6,674.1,857.6,713,872.3z M715.5,873.3c-0.3-3.7-0.7-7.3-1-11c-1.7-16.9-3.7-33.7-6.1-50.5
			c-2-13.7-4.4-27.6-9.2-40.6c-1-2.8-2.2-5.6-3.5-8.4c-13.4-2.6-27.2-3.8-40.1-7.7c-10.1-3-19.4-7.7-27.3-14.8
			c-7.9-7.1-14-15.9-19-25.2c-3.3-6-6.1-12.2-8.8-18.6c-0.3-0.3-0.5-0.5-0.8-0.8c4,8.5,8.1,17,12.3,25.5
			c13.7,27.5,28.7,54.4,47,79.1c18.1,24.3,39.2,46.2,55.8,71.6c0.3,0.4,0.2,0.8,0,1.1C715,873.1,715.2,873.2,715.5,873.3z"/>
	</g>
	<g>
		<path class="st1" d="M667.6,430.2c0.6-6.2,0.3-12.6-0.6-18.8c-2.1-15.1-7.7-29.4-11.8-44c-4.4-15.6-6.2-31.5-6.3-47.7
			c-0.1-16.3,1.2-32.7,2.5-49c0.4-5.6,0.9-11.1,1.4-16.7l-2.1,0.3c-0.7,7.4-1.3,14.8-1.9,22.1c-1.2,16-2.4,32-2,48
			c0.4,15.7,2.6,31,7.1,46c6.3,21.2,15.3,45,10.5,67c-1.8,3.4-3.9,6.6-6.1,9.6l1.6,9.8c0.9-1,1.8-2,2.7-3c5-5.6,9.9-11.4,14.9-17
			c8.4-8.4,17-16.8,25.5-25.1c6.8-5.2,14.3-9.4,22.6-11.3c26.4-6.1,50.2,12.7,75.3,17.2c44.9,8.1,93.6-20.5,107.9-63.8
			c0.3-0.8-0.4-1.4-1.2-1.3c-11.4,1.4-22.4,0-33.4-2.5c5.5-4.7,10.5-10,15.2-15.5c10.5-12.5,19.4-26.3,28.1-40
			c10.4-16.5,20.5-33.1,30.3-50c0.4-0.7,0-1.5-0.8-1.6c-29.1-2-58.7-4.1-87.5,1.4c-22.7,4.3-45.2,13.6-62.2,29.6
			c-20.6,19.3-29,46.9-43.5,70.4c-7.9,12.9-17.3,24.6-27.3,35.9c-1.8,1.2-3.5,2.5-5.2,3.8c12.9-17,23.7-36.8,26.4-58.1
			c1.2-9.5,0.4-19.6-4.1-28.2c-5.3-10-15.8-15.5-21.5-25.2c-0.3-0.5-1.1-0.8-1.6-0.3c-10.6,10.8-18,24.6-21.4,39.3
			c-3,13-3,26.7,0.4,39.6c3.5,13.3,13.7,27.2,6.7,41c-3.8,7.6-10,14.3-15.3,20.9c-3.4,4.2-6.8,8.4-10.3,12.6c-5.1,5-10.1,10-15,15.1
			c0.2-0.9,0.5-1.8,0.7-2.7c3-5.9,4.9-12.3,4.8-19.4c-0.2-11.8-4.3-23.1-5.8-34.7c-1.6-12.8-0.7-26,2.6-38.4
			c3.5-13.1,10.2-25.1,13.7-38.1c3-11,2.9-22.4,0.6-33.5c-1.7-8.1-4.5-15.9-7.8-23.5l-1.9,0.3c5.4,12.3,9.3,25.2,9.4,38.5
			c0.1,12.7-4.1,24.3-8.9,35.9c-4.8,11.7-8.8,23.5-10.1,36.2c-1.2,11.8-0.1,23.5,2.5,35C668,407.5,670.9,419,667.6,430.2z
			 M720.8,277.4c1.7,10.3,3.4,20.5,4.9,30.8c1.3,8.5,2.1,16.9,1.5,25.5c-0.6,8-2.1,15.8-4.3,23.5c-3.9,14-9.9,27.3-15.9,40.5
			c-2.6,2.8-5.2,5.6-7.8,8.5c4.1-5,8.2-10.3,10.3-16.3c4.6-13.2-4.4-26-7.7-38.3c-7.3-26.7,0.3-56.9,19.4-76.9
			c0.4,0.5,0.7,1.1,1.1,1.6C721.6,276,720.6,276.5,720.8,277.4z M714.1,393.4c1.2-1.2,2.5-2.4,3.7-3.5c0,0,0,0,0,0.1
			c-2.5,2.7-5.1,5.4-7.7,8.1c0,0-0.1,0-0.1,0.1C711.4,396.5,712.7,394.9,714.1,393.4z M713.4,391.2c-0.8,0.7-1.5,1.5-2.3,2.2
			c2.5-5.5,4.9-11,7.2-16.6c5.9-14.8,10.5-30.4,11.1-46.4c0.3-8.5-0.8-16.9-2.1-25.2c-1.5-9.4-3-18.8-4.5-28.2c0,0,0,0,0,0
			c6.5,8.5,16.2,14.3,20.5,24.5c4.4,10.5,3.6,22.7,0.9,33.5C738.7,356.4,727.3,374.6,713.4,391.2z M736.7,376.6
			c-2.2,2.1-4.4,4.1-6.5,6.2c-3.4,3.3-6.8,6.5-10.1,9.8c-1.3,0.6-2.5,1.2-3.7,1.8c2.4-2.5,4.8-5,7.1-7.6c3.5-2.9,7-5.9,10.5-8.8
			C734.9,377.5,735.8,377.1,736.7,376.6z M891,271.6c-15.7,7.5-31.4,14.9-46.5,23.4c-15.1,8.5-29.6,17.9-43.7,27.9
			c-23.6,16.7-45.9,34.9-68,53.4c9.7-11.2,18.6-23.1,26-36c13.5-23.7,22.5-50.4,44-68.4c38.7-32.4,92-30.5,139.6-27.2
			C925.9,254.9,908.5,263.3,891,271.6z M871.9,349.5c-15.2-3.6-30.2-9-45.5-11.2c-11.9-1.7-23.9-1.3-35.5,2.3
			c-11.6,3.6-22.2,9.8-31.9,17c-6.3,4.7-12.2,9.7-18,15c-0.4,0.2-0.8,0.3-1.2,0.5c8.3-6.9,16.6-13.7,25-20.5
			c27.4-21.9,56-42.6,86.9-59.3c30.5-16.5,62.9-29,92.4-47.3c0.4-0.3,0.6-0.7,0.5-1.1c0.3,0,0.5,0,0.8,0.1
			c-2.1,3.6-4.2,7.2-6.3,10.8c-9.8,16.6-20,33.1-30.5,49.2c-8.6,13.3-17.8,26.4-29,37.6C877.1,345,874.5,347.3,871.9,349.5z
			 M870,351.1c-8.7,6.9-18.5,12.5-29.4,15.3c-13.6,3.6-27.9,3-41.9,2.1c-13.5-0.8-27.2-2.1-40.7-0.3c-4.2,0.5-8.2,1.4-12,2.6
			c6.7-6,13.7-11.6,21.2-16.5c10.3-6.7,21.6-12,33.8-14.1c12.2-2.1,24.6-0.5,36.6,2.2C848.5,345,859.2,348.4,870,351.1z M904,355
			c-12.8,8.6-26.7,15.5-41.3,20.5c-13,4.4-26.5,7.4-40.1,8.7c-15.2,1.5-30.4,0.8-45.6,0.5c-13.3-0.3-26.9-0.4-40,2.3
			c-4.1,0.8-8,2-11.9,3.5c4.2-4.1,8.4-8.1,12.7-12.1c1.5-1.4,2.9-2.7,4.4-4.1c23-8.5,48.6-3.1,72.8-3c13.9,0,27.6-1.9,40.2-8.2
			c6.2-3.1,12-7,17.3-11.4C882.9,354.1,893.3,355.7,904,355z M710.9,404.3c3.3-3.3,6.7-6.5,10.1-9.8c7.3-3.3,15-5.6,23.2-6.7
			c14.3-1.9,28.9-1.2,43.2-0.9c14.6,0.3,29.1,0.4,43.6-1.7c26.6-3.8,52.2-13.8,74.6-28.8c0.7-0.4,0.4-1.2-0.1-1.5
			c0.4,0,0.7-0.1,1.1-0.1c-8.6,24.4-28.2,43.6-51.6,54c-10.6,4.7-22.1,7.6-33.7,8.2c-12,0.6-23.6-1.4-35-5.3
			c-12.4-4.3-24.3-10.1-37.1-12.9c-12.3-2.6-24.7-1.5-36,4.3C712.3,403.5,711.6,403.9,710.9,404.3z M698.3,413.1
			c2.2-2.3,4.5-4.6,6.7-6.9c2.1-2.2,4.3-4.4,6.4-6.6c1.2-0.7,2.4-1.4,3.6-2.1c-4.4,4.2-8.7,8.5-13.1,12.7
			C700.7,411.1,699.5,412.1,698.3,413.1z"/>
	</g>
	<g>
		<path class="st1" d="M647.6,525.4c2.7-5.6,4.6-11.7,6-17.8c3.2-14.9,3-30.2,4.2-45.4c1.2-16.1,5.1-31.7,10.6-46.9
			c5.6-15.4,12.5-30.2,19.3-45.1c2.3-5.1,4.7-10.1,7.1-15.2l-2.1-0.4c-3.2,6.7-6.3,13.4-9.4,20.1c-6.7,14.6-13.3,29.2-18.5,44.4
			c-5.1,14.8-8.2,30-9.3,45.6c-1.5,22-1.2,47.5-13.4,66.5c-2.8,2.6-5.9,4.8-9.1,6.9l-1.8,9.7c1.2-0.6,2.4-1.3,3.5-1.9
			c6.6-3.6,13.2-7.3,19.8-10.8c10.8-5,21.7-9.9,32.6-14.7c8.1-2.5,16.6-3.9,25.1-2.8c26.9,3.4,42.7,29.3,64.7,42.2
			c39.3,23.1,94.9,13.2,123.3-22.6c0.5-0.6,0.1-1.5-0.6-1.6c-11.2-2.6-21-7.8-30.5-13.9c6.8-2.5,13.3-5.8,19.6-9.3
			c14.2-8,27.3-18,40.2-27.9c15.5-11.8,30.7-24,45.7-36.4c0.6-0.5,0.5-1.4-0.2-1.8c-26.6-12-53.6-24.2-82.6-29
			c-22.8-3.8-47.1-2.9-68.6,6.2c-26,11-43.4,34-65.1,51.1c-11.9,9.3-24.8,17.1-38.1,24.2c-2.1,0.5-4.1,1.1-6.2,1.8
			c18-11.5,35-26.3,44.9-45.4c4.4-8.5,7.2-18.3,5.9-27.9c-1.5-11.2-9.5-20.1-11.5-31.1c-0.1-0.6-0.7-1.2-1.4-0.9
			c-13.7,6.5-25.4,16.8-33.7,29.5c-7.3,11.2-12.1,24-13.4,37.3c-1.3,13.7,3.4,30.2-7.9,40.8c-6.2,5.8-14.3,10-21.6,14.4
			c-4.6,2.8-9.3,5.5-14,8.2c-6.5,3-13,5.9-19.3,8.9c0.5-0.8,1.1-1.5,1.6-2.3c4.9-4.5,8.9-9.8,11.2-16.5c3.9-11.1,3.9-23.2,6.6-34.6
			c2.9-12.6,8.3-24.6,15.7-35.2c7.8-11.1,18.2-20,26-31.1c6.6-9.3,10.5-20,12.2-31.3c1.2-8.2,1.3-16.5,0.9-24.7l-1.9-0.4
			c0.8,13.4,0,26.8-4.5,39.4c-4.3,12-12.3,21.4-20.8,30.7c-8.6,9.4-16.4,19-21.9,30.5c-5.2,10.7-8.2,22-9.8,33.7
			C655.8,504.2,654.5,516,647.6,525.4z M750.3,400.4c-2,10.2-3.9,20.4-6,30.6c-1.7,8.4-3.9,16.6-7.4,24.4
			c-3.3,7.3-7.5,14.1-12.1,20.6c-8.5,11.8-18.7,22.2-28.9,32.5c-3.4,1.7-6.9,3.5-10.2,5.3c5.6-3.3,11.3-6.8,15.3-11.7
			c8.9-10.8,4.9-25.9,6-38.6c2.4-27.6,19.9-53.3,44.8-65.5c0.1,0.6,0.3,1.3,0.5,1.9C751.5,399.4,750.4,399.5,750.3,400.4z
			 M703.9,506.9c1.6-0.7,3.1-1.4,4.7-2c0,0,0,0,0,0.1c-3.3,1.7-6.7,3.3-10,4.9c0,0-0.1,0-0.1,0C700.3,508.9,702.1,507.9,703.9,506.9
			z M704,504.6c-1,0.4-1.9,0.9-2.9,1.3c4.2-4.3,8.4-8.6,12.5-13.1C724.2,481,734,468,740,453.1c3.2-7.9,5.1-16.1,6.8-24.4
			c1.9-9.3,3.7-18.7,5.5-28c0,0,0,0,0,0c3.1,10.2,10.3,19,10.8,30.1c0.5,11.4-4.4,22.5-10.8,31.7C739.7,480.7,722.7,493.8,704,504.6
			z M730.9,499c-2.8,1.2-5.5,2.4-8.3,3.6c-4.3,1.9-8.6,3.8-12.9,5.7c-1.4,0.1-2.8,0.3-4.1,0.4c3.1-1.5,6.2-3.1,9.3-4.7
			c4.3-1.6,8.6-3.1,12.9-4.6C728.8,499.2,729.9,499.1,730.9,499z M912,453.8c-17.3,1.6-34.6,3.1-51.7,5.9
			c-17.1,2.8-34,6.6-50.7,11.1c-27.9,7.5-55.2,16.9-82.3,26.6c13-7.2,25.4-15.2,36.8-24.8c20.8-17.6,38.5-39.5,65-48.9
			c47.5-17,96.9,3.2,140.4,22.7C950.5,450.2,931.2,452.1,912,453.8z M867.1,520.4c-13-8.7-25.2-18.9-38.8-26.2
			c-10.6-5.8-22-9.5-34.1-10.1c-12.1-0.6-24.2,1.5-35.8,4.9c-7.5,2.2-14.9,4.9-22.1,7.9c-0.4,0-0.9,0-1.3,0
			c10.2-3.6,20.3-7.2,30.6-10.6c33.3-11.1,67.2-20.6,102-25.6c34.3-4.9,69.1-5.5,103.1-12.5c0.5-0.1,0.8-0.5,0.8-0.9
			c0.2,0.1,0.5,0.2,0.7,0.3c-3.2,2.7-6.4,5.3-9.7,8c-15,12.2-30.2,24.1-45.7,35.6c-12.7,9.5-25.8,18.6-40.2,25.2
			C873.5,517.9,870.4,519.2,867.1,520.4z M864.8,521.1c-10.6,3.5-21.7,5.3-32.9,4.2c-14-1.4-27.2-6.8-40-12.5
			c-12.4-5.5-24.8-11.4-38.1-14.4c-4.1-0.9-8.2-1.5-12.2-1.7c8.4-3.3,16.9-6.1,25.6-8.1c12-2.7,24.5-3.8,36.6-1.5
			c12.2,2.3,23.3,8,33.6,14.8C846.7,508,855.6,514.9,864.8,521.1z M895.4,536.6c-15,3.6-30.4,5.3-45.9,4.9
			c-13.7-0.3-27.4-2.2-40.6-5.7c-14.7-3.8-28.8-9.8-42.9-15.3c-12.4-4.8-25.1-9.7-38.4-11.7c-4.1-0.6-8.2-0.9-12.3-0.8
			c5.4-2.4,10.7-4.7,16.1-7c1.8-0.8,3.7-1.5,5.5-2.3c24.5,0,46.7,13.9,69.4,22.3c13,4.9,26.6,7.7,40.5,6.2
			c6.9-0.7,13.6-2.4,20.2-4.7C875.8,528.4,885.1,533.6,895.4,536.6z M697.1,516c4.3-1.9,8.5-3.8,12.8-5.7c8-0.6,16,0,24.1,1.8
			c14.1,3.1,27.5,8.8,40.9,14.1c13.5,5.3,27.2,10.4,41.5,13.5c26.3,5.6,53.8,5.1,79.9-1.2c0.8-0.2,0.8-1,0.4-1.5
			c0.3,0.1,0.7,0.2,1,0.3c-16.5,19.9-41.5,31.2-67.1,32.8c-11.6,0.7-23.4-0.5-34.5-4c-11.5-3.6-21.7-9.5-31-17.1
			c-10.1-8.3-19.3-17.9-30.4-24.9c-10.7-6.7-22.6-9.9-35.2-8.4C698.7,515.8,697.9,515.9,697.1,516z M682.2,520
			c2.9-1.4,5.8-2.8,8.7-4.2c2.8-1.3,5.5-2.7,8.3-4c1.4-0.3,2.8-0.5,4.1-0.7c-5.6,2.5-11.1,4.9-16.6,7.4
			C685.2,518.9,683.7,519.4,682.2,520z"/>
	</g>
	<g>
		<path class="st1" d="M839.7,144.1c0,5.8,0,11.6-0.1,17.4c-0.7,43.5-7,89.7-36.2,124c-6.7,7.8-14.4,14.7-23.1,20.2
			c-10.6,6.7-22.5,10.8-33.7,16.2c-9.8,4.7-18.6,10.8-26.2,18.4l-1.2-1.5c2.1-2.1,4.3-4.1,6.6-6.1c18-15,42-19.4,60.6-33.5
			c34.6-26.5,47.3-71,50.4-112.6c0.8-11.3,1.1-22.6,1.2-33.9c0-5.5,0-11,0-16.5c0-5.5,0.4-11.8-2.3-16.8c-0.8-1.4-1.7-2.4-2.7-3.2
			c-7.5,5.3-12.1,13.6-16.1,21.8c-4.3,8.8-8.2,17.7-11.9,26.7c-7.5,18.1-14,36.7-20.3,55.2c-3.1,9.1-6.2,18.3-9.4,27.4
			c-3,8.5-6.4,17-11.3,24.6c-10.1,15.5-26,25.9-36.3,41.3c-4.5,6.7-8.2,14-11.8,21.3l-1.3-1.7c2.6-5.2,5.2-10.3,8.1-15.2
			c4.7-8.1,10.6-15.1,17.2-21.7c6.6-6.6,13.5-12.9,19.2-20.3c5.8-7.5,9.8-16.1,13.1-25c3.4-9.1,6.3-18.3,9.5-27.5
			c6.4-18.7,12.9-37.3,20.3-55.6c4.1-10.1,8.4-20.1,13.2-29.9c4.1-8.3,8.7-16.7,16.2-22.4c-6.9-2.8-17.2,4.4-22.5,8.1
			c-9.3,6.4-17.4,14.4-24.7,23c-14.4,17-25.5,36.6-36.5,55.9c-10.5,18.2-20.6,36.8-27.3,56.8c-3.3,9.9-5.7,20.1-6.8,30.5
			c-1.1,10.3-0.6,20.8-1.3,31.1c-0.2,2.8-0.5,5.5-0.9,8.2l-1.6-2c0.9-7.1,0.9-14.3,1.1-21.4c0.2-10.7,1-21.1,3.4-31.6
			c4.7-20.9,14-40.5,24.2-59.2c10.9-20,22.3-40.2,35.7-58.7c6.6-9.1,13.9-17.7,22.3-25.2c4.1-3.7,8.4-7,12.9-10.1
			c4.1-2.8,8.5-5.6,13.3-7.1c3.9-1.2,8.3-1.3,11.8,1.2c3.8,2.8,5,7.8,5.4,12.2C840,132.7,839.7,138.5,839.7,144.1z"/>
	</g>
	<path class="st1" d="M619.6,221.5c15.7,14,25.9,31.6,33.8,50.5c0.3,1,0.6,1.9,0.9,2.9c-3.5-4.5-7.1-9-10.8-13.3
		c-5.4-6.2-11.1-12.3-17.3-17.7l10,12.4c7.1,7.6,13.6,15.8,19.9,24c0.1,0.4,0.3,0.7,0.4,1.1l7.6,9.4c-0.6-1.7-1.1-3.3-1.7-5
		c-0.9-2.8-1.8-5.5-2.7-8.3c-0.1-1.3-0.2-2.7-0.2-4c1.6,5.5,3.3,11,4.9,16.5c0.1,0.5,0.2,1,0.3,1.5l3.5,4.3c-0.6-2-1.2-4-1.8-6
		c-1.4-8-1.6-16.1,0.4-24c6.5-24.9,32.7-36.7,47.6-55.8c26.5-34.2,23.9-87.8-6.3-118.9c-0.5-0.5-1.4-0.3-1.6,0.4
		c-3.8,10.2-9.9,18.9-16.8,27c-1.6-6.7-3.8-13.2-6.4-19.6c-5.9-14.4-13.6-27.8-21.4-41.2c-9.3-16-18.9-31.8-28.8-47.5
		c-0.4-0.6-1.3-0.7-1.7,0c-14.5,23.6-29.2,47.6-37.3,74.3c-6.3,21-8.4,44-2.4,65.3c7.2,25.8,26.7,45,40.2,67.5
		c7.4,12.3,13.1,25.4,18.2,38.8c0.2,2,0.5,4,0.9,6c-8.6-18.3-20.5-36.2-37.3-47.8c-5.4-3.7-11.6-6.8-18-8.1l2,2.5
		C605.9,211,613.4,215.9,619.6,221.5z M630.8,15c1.3,18.3,0.8,36.7,0.1,55c-0.6,16.5-1.3,32.9-0.7,49.4c0.5,16.4,2.1,32.8,4.3,49.1
		c3.7,27.2,9.2,54,15.1,80.8c-5.2-13.1-11.3-25.8-18.9-37.7c-14-21.8-32.5-41.1-38.2-67.1C582.1,97.6,607.1,53.6,630.8,15z
		 M688.1,120.4c-9.7,11.2-20.8,21.5-29.4,33.4c-6.7,9.3-11.6,19.6-13.6,30.9c-2.1,11.4-1.5,23,0.3,34.3c1.2,7.3,2.8,14.6,4.7,21.8
		c0,0.4-0.1,0.8-0.1,1.2c-2.2-10-4.3-20-6.2-30.1c-6.4-32.7-11.2-65.8-11.7-99.2c-0.5-32.9,3.2-65.7,0.8-98.6c0-0.5-0.4-0.8-0.8-0.9
		c0.1-0.2,0.3-0.4,0.4-0.6c2.1,3.4,4.2,6.7,6.3,10.1c9.7,15.6,19,31.3,28,47.3c7.4,13.1,14.4,26.6,18.9,40.9
		C686.5,114,687.4,117.2,688.1,120.4z M646.1,210.6c-1.1-11.6-0.6-23.5,3-34.6c3.6-11.2,10.4-21,18-29.9c6.8-8,14.4-15.5,21.4-23.4
		c2,10.4,2.4,21.1,0,31.5c-3,13.1-9.7,24.8-16.6,36.2c-6.7,11-13.7,22-18.2,34.1c-1.4,3.7-2.4,7.5-3.1,11.3
		C648.6,227.5,646.9,219.1,646.1,210.6z M706.8,95.8c1.6,14.6,1.3,29.3-1,43.8c-2,12.9-5.4,25.5-10.3,37.6
		c-5.4,13.4-12.7,25.9-19.6,38.6c-6.1,11.1-12.2,22.5-15.6,34.7c-1.1,3.8-1.8,7.7-2.3,11.5c-1.6-5.3-3.1-10.7-4.6-16
		c-0.5-1.8-1-3.7-1.5-5.5c2.9-23.1,18.7-42.3,29.5-62.6c6.1-11.7,10.5-24.1,10.8-37.4c0.1-6.6-0.6-13.1-2-19.5
		C696.7,113.2,702.7,105.1,706.8,95.8z M659.6,267.2c0.4-7.6,1.9-15.1,4.6-22.5c4.7-12.9,11.6-24.8,18.2-36.8
		c6.7-12.1,13.1-24.3,17.7-37.4c8.5-24.1,11.4-50,8.6-75.4c-0.1-0.8-0.8-0.9-1.3-0.6c0.1-0.3,0.3-0.6,0.4-1
		c16.7,17.9,24.4,42.9,22.8,67.2c-0.7,11-3.3,21.9-7.9,32c-4.7,10.4-11.5,19.3-19.8,27.1c-9,8.5-19.2,16-27.1,25.6
		c-7.6,9.2-12.1,20.1-12.2,32.2c0,0.8,0,1.5,0,2.3C662.1,275.7,660.8,271.5,659.6,267.2z M654.3,267.8c1.2,3.4,2.3,6.7,3.4,10.1
		c0,0,0,0.1,0,0.1c-0.7-1.9-1.4-3.7-2.2-5.5C655.1,270.9,654.7,269.4,654.3,267.8C654.3,267.8,654.3,267.8,654.3,267.8z
		 M657.5,271.1c-1.1-3.1-2.2-6.2-3.3-9.3c-0.9-4.2-1.9-8.5-2.8-12.7c0-1,0-2,0-3c0.8,2.7,1.6,5.5,2.4,8.2c1.3,4.3,2.5,8.6,3.8,12.9
		C657.5,268.5,657.5,269.8,657.5,271.1z"/>
	<path class="st1" d="M362.7,187l1.3-2.9c-5.9,2.9-11.1,7.4-15.5,12.3c-13.4,15.4-20.4,35.6-24.3,55.5c-0.1-2-0.3-4.1-0.6-6.1
		c1.6-14.2,3.9-28.3,8-42.1c7.4-25.1,21.6-48.6,22.1-75.4c0.5-22.2-7.2-43.9-18.6-62.7c-14.4-23.9-34.7-43.4-54.6-62.7
		c-0.6-0.5-1.4-0.2-1.6,0.5C273.3,21.2,268,38.9,263,56.7c-4.2,14.9-8.3,29.9-10.4,45.3c-0.9,6.8-1.5,13.7-1.3,20.6
		c-8.7-6.2-16.7-13.1-23-22c-0.4-0.6-1.3-0.6-1.7,0c-21.5,37.7-10.8,90.2,23.4,116.7c19.1,14.8,47.5,19.7,59.9,42.2
		c4,7.1,5.7,15.1,6.4,23.2c-0.1,2.1-0.2,4.2-0.3,6.3l2.3-5c0-0.5,0-1-0.1-1.6c0.2-5.8,0.5-11.5,0.7-17.3c0.3,1.3,0.6,2.6,0.8,3.9
		c-0.2,2.9-0.4,5.8-0.6,8.7c-0.1,1.8-0.2,3.5-0.4,5.3l5-10.9c0-0.4,0.1-0.8,0.1-1.2c4.1-9.6,8.3-19.1,13.3-28.2l6.6-14.5
		c-4.7,6.8-8.7,14-12.4,21.4c-2.5,5.1-4.9,10.4-7.2,15.6c0-1,0.1-2,0.1-3c3-20.3,8.6-39.9,20.2-57.4
		C349.3,197.9,355.3,191.3,362.7,187z M351.9,123.4c0.9,26.6-12.2,49.9-20.3,74.5c-4.5,13.4-7.1,27.3-8.9,41.2
		c-1-27.4-2.3-54.8-5.5-82c-1.9-16.3-4.5-32.5-8.1-48.6c-3.6-16.1-8.3-31.9-13-47.7c-5.2-17.6-10.3-35.3-13.6-53.3
		C315,39.1,350.2,75.5,351.9,123.4z M253.3,114.1c0.8-15,4.2-29.8,8.1-44.3c4.7-17.7,9.9-35.3,15.4-52.8c1.2-3.8,2.4-7.6,3.6-11.3
		c0.2,0.2,0.4,0.4,0.5,0.5c-0.3,0.2-0.6,0.6-0.5,1.1c5.8,32.4,17.5,63.4,25.2,95.3c7.8,32.4,11.3,65.7,13.3,99
		c0.6,10.2,1,20.4,1.4,30.7c-0.1-0.4-0.3-0.8-0.4-1.1c0.1-7.4-0.1-14.9-0.8-22.3c-1.1-11.4-3.5-22.8-8.3-33.3
		c-4.8-10.4-12.1-19.2-20.9-26.6c-11.3-9.4-24.6-16.6-36.8-25C253.1,120.6,253.1,117.3,253.3,114.1z M318.1,226.3
		c-1.6-3.5-3.5-6.9-5.8-10.2c-7.3-10.7-16.9-19.5-26.1-28.5c-9.5-9.3-18.9-19-25.1-30.9c-4.9-9.5-7.2-19.9-7.8-30.5
		c8.8,6,18,11.4,26.5,17.4c9.6,6.7,18.5,14.5,24.8,24.5c6.3,9.9,9.8,21.3,11.5,32.8C317.6,209.3,318,217.8,318.1,226.3z
		 M251.3,124.8c0.3,6.6,1.2,13.1,2.9,19.4c3.6,12.8,10.9,23.8,19.7,33.6c15.4,17,35.5,31.7,44.1,53.3c0,1.9,0,3.8-0.1,5.7
		c-0.1,5.6-0.3,11.1-0.5,16.7c-1.4-3.6-3.1-7.2-5.1-10.6c-6.4-11-15.1-20.5-23.8-29.7c-9.9-10.5-20-20.8-28.6-32.5
		c-7.7-10.5-14.2-21.9-19.3-33.8c-5.7-13.5-9.7-27.7-11.8-42.2C235.2,112.7,243,119,251.3,124.8z M316.8,272.3
		c-0.2-0.8-0.4-1.5-0.6-2.3c-3.1-11.6-10.1-21.1-19.8-28.1c-10.1-7.3-21.8-12.1-32.7-18.1c-10-5.5-18.8-12.4-25.9-21.3
		c-6.9-8.6-12.2-18.5-15.6-29c-7.6-23.1-6.4-49.2,5.4-70.7c0.2,0.3,0.4,0.6,0.6,0.8c-0.6-0.2-1.3,0.1-1.2,0.9
		c3.6,25.3,12.8,49.7,27,70.9c7.7,11.5,17,21.8,26.5,31.8c9.4,9.9,19.1,19.8,26.8,31.1c4.4,6.5,7.7,13.4,10,20.7
		C317.1,263.5,316.9,267.9,316.8,272.3z M322.6,258.3c0,1.6,0,3.2-0.1,4.8c-0.3,2-0.5,3.9-0.8,5.9c0,0,0-0.1,0-0.1
		C321.9,265.4,322.2,261.8,322.6,258.3C322.5,258.3,322.6,258.3,322.6,258.3z M319.2,258.5c0.2-4.5,0.3-8.9,0.5-13.4
		c0.1-2.8,0.2-5.7,0.2-8.5c0.3,0.9,0.5,1.9,0.8,2.9c0.2,4.3,0.3,8.7,0.4,13c-0.3,3.3-0.6,6.6-0.9,9.8
		C319.9,261,319.6,259.7,319.2,258.5z"/>
	<path class="st1" d="M726.7,624.9c-20.5,4.5-40.8,2.6-60.8-2.1c-0.9-0.3-1.9-0.7-2.9-1c5.7-0.2,11.5-0.5,17.2-1
		c8.2-0.7,16.4-1.8,24.5-3.7l-15.9,0.9c-10.3,1.3-20.7,1.8-31.1,2.1c-0.4-0.1-0.8-0.2-1.1-0.3l-12,0.7c1.7,0.5,3.4,1.1,5,1.6
		c2.8,0.9,5.5,1.7,8.3,2.6c1.1,0.7,2.2,1.4,3.3,2.2c-5.4-1.9-10.9-3.8-16.3-5.7c-0.5-0.2-0.9-0.4-1.4-0.7l-5.5,0.3
		c2,0.7,4,1.4,6,2.1c7.3,3.5,14,8.1,19.2,14.4c16.4,19.8,10.6,48,17.4,71.2c12.3,41.5,57.2,70.7,100.2,64.4c0.8-0.1,1-1,0.6-1.5
		c-6-9-9.5-19.1-12.1-29.4c6.3,2.6,13,4.7,19.6,6.3c15.1,3.6,30.5,5.2,45.9,6.8c18.4,1.9,36.9,3.3,55.3,4.4c0.7,0,1.3-0.6,1-1.3
		c-10.7-25.5-21.5-51.5-38.4-73.7c-13.4-17.4-30.8-32.5-51.6-40.2c-25.2-9.3-52.2-4.7-78.3-6.9c-14.3-1.2-28.3-4.2-42.1-7.9
		c-1.8-1-3.6-1.9-5.4-2.8c19.9,3.7,41.3,4.5,60.5-2.3c6.2-2.2,12.2-5.4,17.1-9.9l-3.2,0.2C743.3,619.9,734.9,623.1,726.7,624.9z
		 M887.7,754.7c-15.6-9.6-30.2-20.8-44.7-32.1c-13-10.1-26-20.3-39.6-29.5c-13.6-9.2-27.8-17.5-42.3-25.2
		c-24.2-12.9-49.2-24.1-74.4-35c13.7,3.4,27.5,6,41.7,6.7c25.8,1.4,52.3-2.3,76.8,8.3C849.2,666.9,870.2,713,887.7,754.7z
		 M768.8,739.6c-3.4-14.4-5.2-29.4-9.9-43.4c-3.6-10.9-9.1-20.9-17.1-29.1c-8-8.3-17.8-14.7-28-19.9c-6.6-3.4-13.5-6.2-20.4-8.9
		c-0.3-0.3-0.6-0.5-0.9-0.8c9.4,4.1,18.7,8.2,28,12.5c30.3,14,60,29.4,87.3,48.5c27,18.8,51.4,41.1,79.5,58.3
		c0.4,0.3,0.9,0.2,1.2-0.1c0.1,0.2,0.2,0.5,0.3,0.7c-4-0.2-7.9-0.5-11.9-0.8c-18.3-1.3-36.6-2.9-54.8-4.9
		c-14.9-1.7-29.9-3.9-44.2-8.6C774.8,742,771.8,740.9,768.8,739.6z M720.1,652.8c10.1,5.9,19.4,13.3,26.3,22.7
		c7,9.5,10.9,20.7,13.7,32c2.5,10.2,4.2,20.7,6.5,31.1c-9.6-4.4-18.5-10.4-25.5-18.4c-8.9-10.1-14.4-22.4-19.7-34.6
		c-5.1-11.8-9.8-24-17.1-34.7c-2.2-3.3-4.7-6.3-7.4-9.1C704.9,645,712.7,648.5,720.1,652.8z M777.8,769.2
		c-12.7-7.2-24.5-16.1-35-26.4c-9.3-9.1-17.5-19.3-24.5-30.3c-7.7-12.2-13.6-25.5-19.8-38.5c-5.5-11.4-11.1-23-19-33
		c-2.5-3.1-5.2-6-8-8.6c5.3,1.8,10.5,3.7,15.7,5.6c1.8,0.7,3.6,1.3,5.3,2c17,15.9,23.3,39.9,33.6,60.5c5.9,11.8,13.4,22.6,24,30.6
		c5.3,4,11,7.2,17,9.8C769.6,750.8,772.7,760.4,777.8,769.2z M666.3,630.6c5.9,4.8,11.2,10.4,15.6,16.9c7.7,11.3,13.3,24,19.2,36.3
		c5.9,12.5,12.1,24.9,20,36.2c14.6,21,33.9,38.5,56.2,51c0.7,0.4,1.2-0.2,1.3-0.8c0.2,0.3,0.4,0.6,0.5,0.9
		c-24.3,3.1-49-5.3-67.8-20.8c-8.5-7-15.9-15.5-21.3-25.1c-5.7-9.9-8.9-20.6-10.4-31.9c-1.6-12.3-1.7-24.9-4.9-37
		c-3-11.6-9.3-21.6-19-28.7c-0.6-0.5-1.3-0.9-1.9-1.3C657.9,627.7,662.1,629.1,666.3,630.6z M668.9,626c-3.4-1-6.8-2-10.2-3.1
		c0,0-0.1,0-0.1-0.1c1.9,0.5,3.8,1,5.8,1.4C665.9,624.8,667.4,625.4,668.9,626C668.9,626,668.9,626,668.9,626z M664.4,626.6
		c3.1,1,6.3,1.9,9.5,2.8c4,1.7,8,3.4,12,5.2c0.8,0.6,1.6,1.2,2.4,1.8c-2.7-1-5.4-1.9-8-2.9c-4.2-1.5-8.4-3-12.7-4.4
		C666.5,628.2,665.4,627.4,664.4,626.6z"/>
	<path class="st1" d="M730.8,572.8c17.9,33.5,54.4,50.7,89.7,59.3c9.6,2.3,19.3,4.2,29,5.8c4.7,0.8,9.5,1.6,14.2,2.3
		c4.7,0.7,10.1,2.1,14.8,0.4c1.3-0.5,2.3-1.1,3.1-1.8c-3.5-7.2-10-12.3-16.4-16.9c-6.9-4.9-14.1-9.6-21.3-14
		c-14.5-9-29.5-17.2-44.6-25.3c-7.4-4-14.8-7.9-22.2-11.9c-6.9-3.8-13.7-7.9-19.6-13.2c-11.9-10.9-18.6-26.1-30.3-37.1
		c-1.2-1.1-2.5-2.2-3.8-3.3l0.8-1.5c6.2,5.2,11.4,11.2,16.1,17.7c4.8,6.6,9.2,13.5,14.8,19.4c5.6,6.1,12.5,10.7,19.6,14.8
		c7.3,4.2,14.8,8.1,22.3,12c15.2,8.1,30.3,16.3,45,25.3c8.1,4.9,16.1,10.1,23.9,15.6c6.6,4.7,13.1,9.8,17,17.1
		c3.4-5.6-1.4-15.4-3.8-20.5c-4.2-8.9-9.9-17-16.2-24.5c-12.6-14.8-27.9-27.1-42.9-39.3c-14.2-11.6-28.7-22.9-45-31.5
		c-8-4.2-16.5-7.8-25.2-10.2c-6.9-1.9-14-3-21-4.3l0.8-1.6c2.3,0.4,4.6,0.9,6.9,1.3c9.1,1.7,18,3.9,26.7,7.4
		c17.3,7,32.8,17.8,47.5,29.2c15.6,12.3,31.4,24.8,45.4,39c6.9,7,13.2,14.5,18.5,22.7c2.6,4,4.9,8.2,6.8,12.5
		c1.8,4,3.6,8.1,4.2,12.5c0.5,3.6,0,7.4-2.7,9.9c-3,2.9-7.4,3.2-11.3,2.9c-4.9-0.3-9.8-1.4-14.7-2.1c-5-0.8-10-1.6-15-2.5
		c-37.3-6.8-76.1-18.7-101.5-48.7c-5.8-6.8-10.6-14.5-14.1-22.8c-4.2-10.1-6.1-20.9-9.2-31.3c-0.4-1.3-0.8-2.5-1.2-3.7l1-2
		C721.6,544.1,723.6,559.4,730.8,572.8z"/>
	<g>
		<g>
			<path class="st1" d="M628.3,862.5c-7.1-12.3-14.3-24.6-23-35.9c-3.9-5-8.1-9.7-12.6-14.1c9.6-1.8,19.3-2.6,29.2-1
				c0.6,0.1,1.3-0.4,1.1-1.1c-10.9-38.3-52.3-64.9-91.7-59.5c-22,3-43.4,18.5-66.2,12.3c-7.2-2-13.6-5.9-19.3-10.7
				c-7.1-7.6-14.2-15.1-21.3-22.8c-4.2-5.1-8.2-10.3-12.3-15.4c-13.5-16.6-27-33.2-40.5-49.8l-1.3,6.3c2.1,2.7,4.3,5.3,6.4,8
				c7.7,9.9,15.4,19.9,22.6,30.3c6.1,8.9,11.7,19.2,8.3,30.3c-1.7,5.5-4.8,10.5-7.5,15.5c-2.9,5.4-5.7,10.8-8.4,16.3
				c-5.5,11.2-10.8,22.6-15.6,34.1c-4.5,10.6-9.3,21.4-11.9,32.7c-2.3,10.2-2,20.6,0.7,30.7c2.7,10.2,7.4,19.7,12.6,28.7
				c2.7,4.6,5.5,9,8.4,13.4c2,3.1,4.3,7.8,8.3,8.8c0.9,0.2,1.7,0.2,2.5,0.1c0.4,0.7,1.7,0.5,1.6-0.5c0-0.1,0-0.1,0-0.2
				c2.5-1.4,4.3-4.4,5.7-6.7c2.6-4.4,5.1-8.7,7.5-13.2c4.7-8.7,8.8-17.8,11.3-27.4c2.4-9.6,2.9-19.5,0.7-29.2
				c-2.6-11.5-8-22.2-10.6-33.7c-2.4-11-2.7-22.5-0.9-33.6c1.7-10.1,5.7-19.8,6.3-30.1c0.3-6.2-1.1-11.8-3.5-17
				c-0.1-0.8-0.3-1.6-0.5-2.4c4.1,4.6,8.3,9.1,12.5,13.7c2.9,3.7,5.7,7.5,8.5,11.3c4.4,6,9.5,12,12.6,18.8c5.6,12.3-3.8,24-7.3,35.5
				c-3.4,11.1-3.9,23.1-1.7,34.5c2.4,13,8.4,25.2,17.2,35c0.4,0.5,1.1,0.2,1.4-0.2c5.3-8.2,14.7-12.6,19.7-21.2
				c4.2-7.3,5.3-16.1,4.6-24.4c-1.5-18.7-10.3-36.3-20.9-51.5c1.4,1.2,2.9,2.4,4.4,3.5c8.3,10.2,16.1,20.8,22.5,32.2
				c11.7,21,18.1,45.3,35.3,62.9c14.3,14.5,33.5,23.4,53.1,28c24.9,5.8,50.8,5.1,76.2,4.4c0.7,0,1-0.8,0.7-1.3
				C645,892.1,636.8,877.3,628.3,862.5z M373.3,669.8c-0.2-0.3-0.5-0.6-0.7-0.9c5.8,7.1,11.5,14.2,17.3,21.2
				C384.4,683.3,378.8,676.6,373.3,669.8z M412.4,764.8c-2.6,10-4,20.1-3.4,30.4c0.6,11.1,3.7,21.5,7.5,31.9
				c3.7,10.3,7,20.6,6.4,31.6c-1,19.6-11.4,37.8-21.3,54.3c-0.9,1.4-2,3.3-3.6,4.4c-1-14.5-1.8-29.1-2.4-43.7
				c-0.6-14.2-1.1-28.5-0.5-42.7c0.7-14.1,2.8-27.9,7.2-41.3c4.1-12.6,9.5-24.8,11.9-37.9c1-5.4,1.4-10.9,1.2-16.4
				C417.9,745.3,414.9,755.2,412.4,764.8z M401.5,786.9c-4.4,12.9-6.9,26.2-7.8,39.8c-0.9,14-0.5,28,0,41.9
				c0.6,16.6,1.5,33.1,2.7,49.6c-0.6,0.1-1.2,0.1-1.9,0c-2.5-0.6-4.1-3.3-5.4-5.3c-2.8-4.3-5.6-8.6-8.3-13
				c-5.4-9-10.4-18.3-13.4-28.4c-3.1-10.2-4-20.9-1.8-31.4c2.3-11.1,7-21.7,11.4-32.2c4.7-11.1,9.7-22.2,15-33
				c2.7-5.5,5.4-10.9,8.3-16.4c2.6-4.9,5.5-9.7,7.7-14.8c1.9-4.4,2.9-9,2.4-13.8c-0.5-4.2-1.9-8.2-3.7-11.9c0.1,0.1,0.2,0.2,0.3,0.4
				c2.3,3.4,4.6,6.8,6.3,10.5C416.4,748.2,407.7,768.6,401.5,786.9z M591,811.2c-4.5-4-9.3-7.6-14.6-10.5
				c-10.7-5.9-22.6-8.1-34.7-8.6c-21.1-0.8-43.6,3-63.3-5.3c-1.2-1.2-2.5-2.5-3.7-3.7c-3.6-3.6-7.1-7.3-10.6-11
				c3.3,1.4,6.7,2.6,10.2,3.5c11.3,2.9,23.2,3.2,34.8,3.5c13.2,0.3,26.5,0.2,39.7,2c11.8,1.7,23.5,4.7,34.6,9
				c12.5,4.9,24.4,11.4,35.3,19.3C609.3,808.4,600.1,809.4,591,811.2z M588.8,811.6c-9.5,1.9-19,4.5-28.4,6.3
				c-10.6,2-21.4,2.9-32,0.6c-10.5-2.2-20.2-7.2-29-13.5c-6.4-4.5-12.3-9.7-17.9-15.1c3.3,1.2,6.8,2.1,10.4,2.7
				c11.7,2,23.7,1.4,35.5,1.2c12.2-0.3,24.6-0.2,36.4,3.4C573.1,800.1,581.5,805.2,588.8,811.6z M454,760.6c9.6,5.4,20.3,6.9,31.2,5
				c11.3-1.9,21.9-6.6,32.8-9.9c10-3,20.2-4.4,30.6-3.4c10.1,1,20,3.9,29.1,8.4c20.1,9.9,36.4,27.4,43,48.9c-0.3,0-0.6-0.1-0.9-0.1
				c0.5-0.3,0.7-0.9,0.2-1.3c-18.9-13.9-40.9-23.4-63.9-27.7c-12.5-2.3-25.2-2.8-37.9-3.1c-12.5-0.2-25.2-0.1-37.6-2.3
				c-7.1-1.3-13.7-3.5-20-6.7c-2.8-3-5.6-5.9-8.4-8.9C452.8,759.9,453.4,760.3,454,760.6z M444.6,754.1c3.6,3.8,7.3,7.7,10.9,11.5
				c-1-0.6-2.1-1.3-3.1-2c-1.8-2-3.6-4-5.3-6c-1.9-2.1-3.7-4.2-5.6-6.3C442.5,752.3,443.5,753.2,444.6,754.1z M457.7,772.3
				C457.7,772.3,457.6,772.4,457.7,772.3c-1.1-1-2.1-2-3.1-3.1c-1.1-1.4-2.2-2.9-3.4-4.3c0,0,0.1,0,0.1,0.1
				C453.4,767.4,455.5,769.8,457.7,772.3z M456.4,872.8c-15.9-18.2-21.4-44.7-14.1-67.7c3.4-10.6,11.7-21.4,8.1-33.1
				c-1.6-5.3-5.1-10.1-8.4-14.6c2.1,2.6,4.3,5.2,6.5,7.7c4.8,11.7,9.5,23.5,12.4,35.9c1.6,6.8,2.7,13.7,2.9,20.6
				c0.2,7.5-0.8,14.8-2.2,22.2c-1.7,8.9-3.6,17.8-5.4,26.6c-0.2,0.8,0.7,1.2,1.3,1C457.1,871.9,456.8,872.3,456.4,872.8z
				 M478.6,821.1c2,9.6,2.3,20.1-2,29.2c-4.1,8.8-12.8,13.4-18.7,20.6c0,0,0,0,0,0c1.7-8.1,3.3-16.3,5-24.4
				c1.5-7.2,2.7-14.5,2.7-21.9c0.1-14-3.4-27.7-8-40.8c-1.8-5-3.7-9.9-5.7-14.8c0.6,0.7,1.3,1.4,1.9,2.1
				C465.3,786,474.6,802.2,478.6,821.1z M462.4,775.2c-2-2.3-3.9-4.6-5.9-6.9c1,0.6,2.1,1.2,3.2,1.7c2.8,3,5.7,5.9,8.5,8.9
				c1.8,1.9,3.6,3.8,5.5,5.6c-0.8-0.4-1.6-0.9-2.4-1.4C468.3,780.6,465.4,777.9,462.4,775.2z M527.4,878.1
				c-18.1-16.5-25-40-35.9-61.1c-6-11.5-13.3-22.2-21.4-32.3c18.6,16.9,37.4,33.7,57.4,49c11.9,9.2,24.3,17.9,37.1,25.9
				c12.9,8,26.3,15,39.6,22c14.9,7.9,29.8,15.8,43.7,25.3C606.5,908,560,907.7,527.4,878.1z M650,906.8c0.1-0.4,0-0.8-0.4-1
				c-25-17-52.9-29.1-78.8-44.6c-26.3-15.7-50.4-34.7-73.5-54.8c-7.1-6.2-14.1-12.4-21.1-18.7c0.3,0.2,0.7,0.3,1,0.5
				c4.8,4.8,9.8,9.4,15.2,13.7c8.2,6.6,17.2,12.4,27.2,15.9c9.9,3.6,20.4,4.4,30.8,3.3c13.4-1.4,26.7-5.5,40-8.1
				c2.2,2,4.4,4.1,6.4,6.4c9.4,10.2,16.9,21.9,23.9,33.8c8.6,14.5,16.8,29.2,24.8,44c1.7,3.2,3.4,6.4,5.1,9.7
				C650.4,906.8,650.2,906.8,650,906.8z"/>
		</g>
		<g>
			<path class="st1" d="M302.9,507.1c-9.1-7.5-18.9-13.9-30-18.3c-11.9-4.7-24.1-6.5-36.7-7.7c-12.5-1.1-24.8-2.7-36-8.6
				c-11.8-6.2-21.4-15.6-29.9-26l-1.2,1.6c5.2,6.4,10.9,12.5,17.3,17.7c8.8,7.2,18.9,12.5,30.1,14.9c13.2,2.9,26.9,2.4,40.2,5.4
				c12.6,2.8,24.7,8,35.3,15.3c9.7,6.6,17.8,15.5,28.2,21.1c6.2,3.3,12.8,4.6,19.4,4.6c0.9,0.2,1.8,0.5,2.7,0.7
				c-6.7,2-13.5,4.2-20.3,6.4c-5.3,1.2-10.6,2.3-15.9,3.4c-8.3,1.6-17.1,4-25.6,4c-15.5-0.1-23.2-15.6-33.3-24.8
				c-9.9-8.9-22.1-15.2-35-18.5c-14.7-3.8-30.3-3.5-44.8,1c-0.7,0.2-0.8,1-0.4,1.6c6,9.5,6,21.4,12.5,30.7
				c5.5,7.9,14.2,13.3,23.1,16.6c20.1,7.4,42.7,6.9,63.7,3.2c-2,0.9-3.9,1.8-5.7,2.8c-14.6,3.7-29.4,6.7-44.4,7.8
				c-27.5,2-55.9-3.2-82.5,6.3c-22,7.8-40.6,23.5-54.8,41.7c-18.1,23.1-29.9,50.3-41.4,77.1c-0.3,0.7,0.3,1.5,1,1.4
				c19.5-0.9,38.9-2.2,58.3-3.9c16.2-1.4,32.6-2.9,48.5-6.6c7-1.6,14-3.7,20.7-6.3c-2.8,10.9-6.6,21.4-13.1,30.8
				c-0.4,0.6-0.2,1.5,0.6,1.6c45.1,7.2,92.8-22.9,106.3-66.5c7.5-24.3,1.7-54.1,19.3-74.8c5.6-6.5,12.7-11.3,20.4-14.9
				c11.3-3.8,22.6-7.5,34-11.1c7.3-1.8,14.7-3.6,21.9-5.4c1.3-0.3,2.6-0.7,3.9-1l-7.9-6c-3.8,0.6-7.6,1-11.4,1
				c-21.8-5.8-38.8-24.8-54.7-40.1c-11.3-10.9-23.9-19.9-37.6-27.4c-14.1-7.7-28.8-14-43.6-20.3c-6.8-2.9-13.7-5.7-20.5-8.5
				l-1.3,1.7c5.2,2.1,10.3,4.2,15.5,6.4c15.1,6.3,30.2,12.7,44.6,20.2c14.3,7.5,27.6,16.4,39.4,27.5c11.1,10.4,21.2,21.9,33.7,30.7
				c5.1,3.6,10.7,6.8,16.4,9.1C320.5,522.2,311.6,514.3,302.9,507.1z M170.2,502.3c-0.3-0.6-0.6-1.1-0.9-1.7
				c26.6-7.8,56.8-0.6,77.2,18.1c9.4,8.6,16.6,22.5,30.5,24.5c6.3,0.9,12.9-0.4,19.2-1.7c-3.7,0.9-7.5,1.9-11.1,3
				c-14.5-0.6-29-1.5-43.3-4.4c-7.8-1.6-15.5-3.8-22.9-7c-7.9-3.4-15-8-22-13c-8.4-6.1-16.7-12.4-25.1-18.5
				C171.1,500.9,170.3,501.6,170.2,502.3z M284,547.3c0,0-0.1,0-0.1,0.1c-3.6,1.1-7.1,2.1-10.7,3.1c0,0,0,0,0-0.1
				c1.6-0.6,3.2-1.2,4.8-1.7C280,548.3,282,547.8,284,547.3z M212.3,548.6c-10.9-2.5-22-7.4-29.4-16.2c-7.1-8.5-7.8-19.8-12.3-29.5
				c0,0,0,0,0,0c7.6,5.7,15.3,11.3,22.9,17c6.8,5,13.8,9.8,21.4,13.5c14.5,6.9,30.4,9.9,46.3,11.5c6,0.6,12,1,18.1,1.3
				c-1,0.3-2,0.7-3,1C255.2,551.8,233.9,553.6,212.3,548.6z M255.2,559.4c4.2-1.8,8.4-3.5,12.7-5.3c3.3-0.9,6.7-1.9,10-2.8
				c-1.1,0.8-2.3,1.6-3.4,2.5c-4.5,1.5-8.9,3-13.4,4.5c-2.8,1-5.7,1.9-8.5,2.9C253.5,560.6,254.4,560,255.2,559.4z M41.1,683.2
				c19-43.7,41.7-91.9,88.3-111.4c25.9-10.8,53.7-6.6,81-7.7c14.9-0.6,29.5-3.1,43.9-6.5c-26.6,11.1-53.1,22.6-78.7,35.9
				c-15.4,7.9-30.4,16.5-44.9,26c-14.5,9.5-28.3,20-42.1,30.5C73.1,661.7,57.6,673.3,41.1,683.2z M156.8,672.4
				c-15.1,4.8-31,6.9-46.7,8.5c-19.2,1.9-38.5,3.4-57.8,4.5c-4.2,0.2-8.3,0.4-12.5,0.6c0.1-0.2,0.2-0.5,0.3-0.7
				c0.3,0.3,0.8,0.4,1.2,0.1c29.8-17.8,55.9-40.8,84.5-60.3c29.1-19.8,60.6-35.6,92.6-49.9c9.8-4.4,19.8-8.6,29.7-12.8
				c-0.3,0.3-0.7,0.6-1,0.8c-7.3,2.7-14.6,5.7-21.6,9.1c-10.9,5.3-21.2,11.9-29.7,20.5c-8.5,8.6-14.4,19.1-18.4,30.5
				c-5.1,14.6-7.2,30.4-10.9,45.6C163.4,670.2,160.1,671.3,156.8,672.4z M176,635.2c3.1-11.9,7.4-23.7,14.9-33.6
				c7.4-9.9,17.3-17.5,28-23.6c7.8-4.4,16-8,24.4-11.3c-2.9,2.9-5.5,6-7.9,9.5c-7.8,11.2-12.9,23.9-18.4,36.3
				c-5.6,12.8-11.7,25.7-21.1,36.2c-7.5,8.3-16.9,14.5-27.1,19.1C171.4,657,173.3,645.9,176,635.2z M168.2,670.4
				c6.4-2.7,12.4-6,18-10.1c11.3-8.3,19.4-19.6,25.7-31.9c11-21.5,18-46.8,36.1-63.3c1.9-0.7,3.8-1.4,5.6-2
				c5.5-1.9,11.1-3.8,16.6-5.7c-3.1,2.7-5.9,5.7-8.6,8.9c-8.4,10.4-14.6,22.5-20.5,34.5c-6.7,13.6-13.1,27.5-21.4,40.3
				c-7.5,11.5-16.3,22.1-26.1,31.6c-11.1,10.7-23.7,19.9-37.2,27.3C162.2,690.7,165.6,680.7,168.2,670.4z M287.1,552.4
				c-10.3,7.4-17,17.8-20.3,30c-3.5,12.7-3.8,25.9-5.6,38.9c-1.7,11.9-5.3,23.1-11.3,33.5c-5.9,10-13.7,18.9-22.8,26.2
				c-20,16.1-46.1,24.6-71.7,21c0.2-0.3,0.4-0.6,0.6-0.9c0.1,0.6,0.6,1.2,1.3,0.8c23.6-13,44.2-31.1,59.8-53
				c8.5-11.9,15.1-24.8,21.5-37.9c6.3-12.9,12.4-26.2,20.7-38c4.7-6.8,10.3-12.6,16.6-17.5c4.4-1.5,8.9-3,13.3-4.4
				C288.4,551.4,287.8,551.9,287.1,552.4z M298.5,545.7c-5.8,1.9-11.5,3.8-17.3,5.8c1.2-0.8,2.3-1.5,3.6-2.2
				c2.9-0.9,5.9-1.8,8.8-2.6c3.1-0.9,6.2-1.9,9.2-2.8C301.3,544.4,299.9,545.1,298.5,545.7z"/>
		</g>
		<g>
			<path class="st1" d="M350,313.6c8.4-8.3,15.6-17.5,21.1-28.1c5.8-11.3,8.8-23.4,11.2-35.8c2.3-12.3,5-24.4,12-35
				c7.3-11.1,17.6-19.8,28.8-27.3l-1.4-1.3c-6.9,4.6-13.4,9.7-19.3,15.5c-8,8.1-14.2,17.6-17.7,28.5c-4.1,12.9-5,26.6-9.2,39.5
				c-4,12.3-10.4,23.8-18.7,33.7c-7.5,9-17.1,16.2-23.7,26.1c-3.9,5.9-5.8,12.3-6.5,18.9c-0.3,0.9-0.6,1.8-0.9,2.7
				c-1.4-6.9-2.9-13.8-4.5-20.8c-0.7-5.4-1.3-10.8-1.8-16.1c-0.8-8.4-2.4-17.4-1.5-25.9c1.6-15.4,17.7-21.6,27.9-30.8
				c9.9-9,17.3-20.6,21.8-33.1c5.2-14.3,6.4-29.8,3.3-44.7c-0.1-0.7-1-0.9-1.5-0.6c-10,5-21.9,3.9-31.8,9.5
				c-8.4,4.8-14.6,12.8-18.7,21.4c-9.3,19.3-10.9,41.9-9.3,63.1c-0.7-2-1.4-4-2.3-6c-2.3-14.9-3.8-29.9-3.5-45
				c0.6-27.6,8.5-55.3,1.7-82.8c-5.6-22.7-19.5-42.6-36.2-58.6c-21.2-20.3-47.2-34.6-72.8-48.6c-0.7-0.4-1.5,0.1-1.5,0.9
				c-1,19.5-1.5,38.9-1.7,58.4c-0.1,16.3-0.2,32.7,1.9,48.9c0.9,7.2,2.3,14.3,4.3,21.3c-10.5-3.9-20.6-8.7-29.4-16
				c-0.6-0.5-1.5-0.3-1.7,0.5c-11.5,44.2,13.9,94.6,56,112.2c23.5,9.8,53.7,6.9,72.6,26.4c6,6.2,10,13.7,12.9,21.8
				c2.7,11.6,5.3,23.3,7.8,34.9c1.1,7.5,2.1,14.9,3.3,22.4c0.2,1.3,0.4,2.7,0.6,4l6.7-7.3c-0.2-3.8-0.3-7.6,0.1-11.4
				c7.8-21.1,28.4-36.2,45.1-50.6c11.9-10.2,22.1-21.9,30.9-34.8c9-13.3,16.7-27.4,24.4-41.4c3.5-6.5,7-13.1,10.4-19.6l-1.5-1.4
				c-2.6,4.9-5.2,9.9-7.8,14.8c-7.7,14.4-15.5,28.8-24.4,42.5c-8.8,13.5-19,25.9-31.2,36.6c-11.4,10-23.8,19-33.8,30.6
				c-4.1,4.8-7.8,10-10.7,15.5C333.3,329.8,342,321.6,350,313.6z M367.5,182c0.6-0.2,1.2-0.5,1.8-0.7c5.2,27.2-4.8,56.6-25.4,75.1
				c-9.5,8.5-24,14.4-27.3,28c-1.5,6.2-0.9,12.9-0.2,19.3c-0.6-3.8-1.2-7.6-1.9-11.4c2-14.4,4.3-28.7,8.6-42.6
				c2.3-7.6,5.3-15.1,9.2-22.1c4.1-7.5,9.4-14.2,15.1-20.6c6.9-7.8,13.9-15.5,20.9-23.2C368.8,183.1,368.2,182.1,367.5,182z
				 M311.8,291c0,0,0-0.1-0.1-0.1c-0.7-3.7-1.4-7.3-2.1-11c0,0,0,0,0.1,0c0.4,1.6,0.8,3.3,1.2,5C311.2,286.9,311.5,288.9,311.8,291z
				 M317.4,219.5c3.6-10.6,9.5-21.2,18.9-27.7c9.2-6.3,20.4-5.8,30.5-9.5c0,0,0,0,0,0c-6.4,7.1-12.8,14.1-19.1,21.2
				c-5.6,6.3-11.1,12.8-15.4,20.1c-8.2,13.7-12.8,29.3-15.8,45c-1.2,5.9-2.1,11.9-3,17.9c-0.2-1-0.5-2.1-0.7-3.1
				C310.1,261.9,310.3,240.5,317.4,219.5z M302.6,261.2c1.4,4.4,2.7,8.7,4,13.1c0.6,3.4,1.2,6.8,1.8,10.2c-0.7-1.2-1.4-2.4-2.1-3.6
				c-1.1-4.6-2.1-9.2-3.2-13.7c-0.7-2.9-1.4-5.8-2.1-8.7C301.5,259.4,302.1,260.3,302.6,261.2z M199.8,36.1
				c41.7,23.1,87.5,50.4,102.5,98.6c8.3,26.8,1.4,54.1-0.1,81.3c-0.8,14.9,0.3,29.7,2.3,44.3c-8.5-27.6-17.4-55-28.2-81.8
				c-6.4-16-13.5-31.8-21.6-47.1c-8.1-15.4-17.2-30.1-26.4-44.9C218.2,70.1,208.1,53.6,199.8,36.1z M199.5,152.4
				c-3.3-15.5-3.9-31.5-4-47.3c-0.1-19.3,0.3-38.6,1.1-57.9c0.2-4.2,0.4-8.3,0.6-12.5c0.2,0.1,0.5,0.3,0.7,0.4
				c-0.3,0.3-0.4,0.7-0.2,1.2c14.8,31.4,35.3,59.5,52,89.9c16.9,30.8,29.7,63.7,40.8,96.9c3.4,10.2,6.7,20.5,9.9,30.8
				c-0.2-0.4-0.5-0.7-0.7-1.1c-2-7.6-4.2-15.1-7-22.4c-4.3-11.3-9.8-22.3-17.6-31.6c-7.8-9.3-17.6-16.2-28.6-21.2
				c-14.1-6.4-29.6-10.1-44.3-15.3C201.1,159.1,200.2,155.8,199.5,152.4z M234.6,175.1c11.6,4.2,22.8,9.6,32,18
				c9.1,8.3,15.8,18.9,20.8,30.2c3.7,8.2,6.5,16.7,8.9,25.4c-2.6-3.1-5.5-6-8.7-8.7c-10.4-8.8-22.6-15.2-34.4-21.8
				c-12.2-6.8-24.5-14.1-34-24.5c-7.6-8.3-12.8-18.3-16.4-28.8C213.4,168.4,224.3,171.3,234.6,175.1z M200.4,163.9
				c2.1,6.6,4.8,13,8.4,18.9c7.2,12,17.6,21.2,29.3,28.7c20.4,13.1,44.8,22.4,59.5,42c0.5,1.9,1,3.9,1.5,5.8
				c1.4,5.7,2.8,11.4,4.1,17.1c-2.4-3.3-5.1-6.4-8.1-9.4c-9.5-9.4-21-16.6-32.4-23.7c-12.9-8-26.1-15.7-38.1-25.1
				c-10.7-8.5-20.5-18.3-29-29.1c-9.5-12.1-17.5-25.4-23.6-39.6C180.7,156,190.4,160.3,200.4,163.9z M306.5,293.6
				c-6.4-11-16.1-18.6-27.9-23.1c-12.3-4.7-25.5-6.2-38.2-9.3c-11.6-2.8-22.5-7.4-32.3-14.5c-9.4-6.8-17.5-15.5-23.9-25.2
				c-14.1-21.4-20.1-48.2-14.1-73.4c0.3,0.2,0.6,0.4,0.9,0.7c-0.6,0-1.3,0.5-0.9,1.2c10.6,24.7,26.8,46.9,47.1,64.6
				c11,9.6,23.3,17.4,35.7,25.1c12.3,7.5,24.9,14.8,35.8,24.2c6.3,5.4,11.5,11.4,15.9,18.2c1.1,4.6,2.1,9.1,3.1,13.7
				C307.3,295,306.9,294.3,306.5,293.6z M312,305.5c-1.4-5.9-2.7-11.8-4.1-17.8c0.7,1.2,1.3,2.5,1.9,3.8c0.6,3,1.2,6,1.8,9
				c0.6,3.2,1.3,6.3,1.9,9.5C313,308.5,312.5,307,312,305.5z"/>
		</g>
		<g>
			<path class="st1" d="M26.5,537.8c5.1,2.7,10.3,5.3,15.5,7.9c39,19.4,82.9,35,126.8,24.8c10-2.3,19.7-6.1,28.6-11.3
				c10.8-6.4,19.9-15,29.9-22.5c8.7-6.6,18.1-11.5,28.4-14.8l-0.8-1.8c-2.8,0.9-5.7,1.9-8.4,3.1c-21.6,9.1-36.5,28.4-57.6,38.4
				c-39.4,18.5-84.8,9.4-123.2-7c-10.4-4.4-20.6-9.4-30.7-14.5c-4.9-2.5-9.8-5.1-14.7-7.6c-4.9-2.6-10.7-5-13.8-9.8
				c-0.9-1.3-1.4-2.6-1.6-3.8c8.2-4.2,17.7-4.5,26.7-4.3c9.8,0.2,19.5,0.8,29.2,1.7c19.5,1.7,39,4.4,58.4,7.3
				c9.5,1.4,19.1,2.9,28.6,4.3c8.9,1.2,18,2.2,27.1,1.2c18.4-1.9,35-11.2,53.4-13.3c8.1-0.9,16.2-0.9,24.4-0.7l-0.9-2
				c-5.8-0.1-11.5-0.1-17.3,0.2c-9.3,0.5-18.3,2.5-27.2,5.3c-8.9,2.8-17.7,6.1-26.9,7.7c-9.3,1.7-18.8,1.3-28.2,0.1
				c-9.6-1.2-19.2-2.8-28.8-4.2c-19.5-2.9-39.1-5.7-58.7-7.6c-10.9-1-21.7-1.7-32.6-2c-9.3-0.2-18.8,0-27.3,4.1
				c0.7-7.4,11.8-13.2,17.5-16.3c10-5.3,20.8-8.9,31.7-11.4c21.7-4.9,44.2-5.8,66.4-6.8c21-0.9,42.2-1.4,63,1.9
				c10.3,1.6,20.5,4.1,30.2,8c9.7,3.8,18.7,9,28.3,13.2c2.5,1.1,5.1,2.1,7.7,3l-1-2.4c-6.7-2.5-13.1-5.7-19.5-8.9
				c-9.6-4.7-19.3-8.8-29.6-11.5c-20.7-5.4-42.4-6.2-63.7-5.7c-22.8,0.5-45.9,1.3-68.5,4.8c-11.1,1.7-22.1,4.2-32.6,8.2
				c-5.1,1.9-10.1,4.2-14.9,6.9c-4.4,2.4-8.9,5-12.4,8.6c-2.9,2.9-5,6.8-4.3,11c0.8,4.7,4.6,8,8.4,10.4
				C16.3,532.8,21.5,535.2,26.5,537.8z"/>
		</g>
		<path class="st1" d="M207,384l-1.3-2.9c-1.8,6.4-1.9,13.2-1.1,19.8c2.6,20.2,13,39,25.3,55.1c-1.6-1.3-3.2-2.5-4.9-3.6
			c-9.6-10.6-18.5-21.8-26.1-34c-13.8-22.3-21.9-48.4-41.5-66.7c-16.2-15.1-37.6-23.8-59.2-27.9c-27.4-5.1-55.5-3-83.1-1
			c-0.8,0.1-1.1,0.9-0.7,1.5c9.3,16,19,31.8,28.9,47.4c8.3,13,16.8,26.1,26.8,37.9c4.4,5.2,9.2,10.2,14.5,14.7
			c-10.4,2.4-20.9,3.8-31.7,2.5c-0.7-0.1-1.3,0.5-1.1,1.3c13.8,41.1,60.1,68.1,102.7,60.2c23.8-4.4,46.3-22.3,71.4-16.6
			c8,1.8,15.1,5.8,21.5,10.6c1.5,1.5,3,2.9,4.5,4.4l-2.2-5c-0.4-0.3-0.8-0.7-1.2-1c-4.1-4-8.3-8-12.4-12c1.2,0.6,2.3,1.3,3.4,2
			c2,2.1,4.1,4.2,6.1,6.2c1.2,1.3,2.5,2.5,3.7,3.8l-4.8-11c-0.3-0.3-0.5-0.6-0.8-0.9c-4.4-9.4-8.7-18.9-12.2-28.7l-6.4-14.6
			c1.9,8,4.7,15.9,7.7,23.5c2.1,5.3,4.5,10.6,6.9,15.8c-0.7-0.7-1.4-1.4-2.2-2.1c-13.2-15.7-24.1-32.9-29.3-53.3
			C206.1,401.2,205.2,392.3,207,384z M152.3,349.7c20.5,17,29.2,42.3,42.1,64.8c7,12.3,15.6,23.5,24.8,34.1
			c-21.1-17.5-42.4-34.8-64.8-50.5c-13.4-9.4-27.3-18.3-41.6-26.3c-14.4-8-29.3-15-44.2-22c-16.6-7.8-33.2-15.8-48.8-25.4
			C64.8,321.1,115.4,319.1,152.3,349.7z M79.7,417C69,406.4,60.2,394,52,381.4c-10.1-15.3-19.8-30.9-29.2-46.6c-2-3.4-4-6.8-6-10.3
			c0.3,0,0.5,0,0.8-0.1c-0.1,0.4,0,0.8,0.5,1.1c28,17.3,58.9,29.1,87.9,44.6c29.4,15.8,56.6,35.3,82.7,56c8,6.4,16,12.8,23.8,19.4
			c-0.4-0.2-0.8-0.3-1.1-0.5c-5.5-5-11.2-9.8-17.2-14.2c-9.3-6.8-19.3-12.6-30.4-16c-11-3.4-22.4-3.8-33.7-2.1
			c-14.5,2.2-28.8,7.3-43.2,10.8C84.4,421.5,82,419.3,79.7,417z M206.6,443.4c-3.7-1.1-7.5-2-11.4-2.5c-12.8-1.6-25.8-0.4-38.7,0.5
			c-13.2,0.9-26.8,1.5-39.8-1.9c-10.3-2.7-19.7-7.9-28-14.4c10.3-2.6,20.4-5.9,30.6-8.2c11.4-2.7,23.2-4.2,34.8-2.2
			c11.6,1.9,22.4,6.9,32.2,13.2C193.5,432.5,200.2,437.8,206.6,443.4z M86.4,425.7c5.1,4.2,10.5,7.8,16.5,10.7
			c12,5.9,25,7.7,38.2,7.6c23-0.2,47.3-5.4,69.1,2.6c1.4,1.3,2.8,2.6,4.2,3.9c4.1,3.8,8.1,7.6,12.1,11.5c-3.6-1.4-7.4-2.5-11.3-3.3
			c-12.5-2.5-25.4-2.4-38-2.1c-14.4,0.3-28.9,1.1-43.3-0.3c-13-1.2-25.8-4-38.1-8.1c-13.9-4.7-27.1-11.2-39.3-19.3
			C66.6,429.6,76.5,428,86.4,425.7z M240,475c-0.7-0.4-1.4-0.7-2-1.1c-10.8-5.4-22.5-6.5-34.2-4c-12.2,2.6-23.5,8.2-35.2,12.3
			c-10.7,3.8-21.8,5.7-33.2,5.2c-11-0.5-21.9-3.2-32.1-7.7c-22.3-9.7-41-28-49.2-51.1c0.3,0,0.7,0.1,1,0.1c-0.5,0.3-0.7,1-0.1,1.5
			c21.3,14.1,45.6,23.5,70.9,27c13.7,1.9,27.6,1.8,41.4,1.5c13.6-0.4,27.5-1.1,41,0.7c7.8,1,15.1,3.1,22.1,6.3
			C233.6,468.9,236.8,471.9,240,475z M233.4,461.3c1.2,1.1,2.4,2.2,3.5,3.3c1.3,1.5,2.6,3,3.9,4.5c0,0-0.1,0-0.1-0.1
			C238.3,466.5,235.8,464,233.4,461.3C233.4,461.4,233.4,461.4,233.4,461.3z M231.3,464c-3.2-3.1-6.5-6.2-9.7-9.3
			c-2.1-2-4.1-3.9-6.2-5.9c0.9,0.4,1.8,0.9,2.7,1.4c3.3,2.8,6.7,5.6,10,8.3c2.2,2.4,4.5,4.8,6.8,7.2
			C233.7,465.1,232.5,464.5,231.3,464z"/>
		<path class="st1" d="M271.8,694.6l-2.2,2.2c6.6-0.7,13-3.1,18.8-6.2c17.9-9.8,31.5-26.3,42-43.6c-0.6,2-1.1,3.9-1.5,5.9
			c-6.4,12.8-13.5,25.2-22.1,36.7c-15.7,21-37.1,38.1-47,63c-8.1,20.6-8.5,43.7-4.3,65.2c5.2,27.4,17.4,52.8,29.4,77.7
			c0.3,0.7,1.2,0.7,1.7,0.1c11.5-14.5,22.7-29.3,33.5-44.2c9.1-12.5,18.2-25.1,25.5-38.8c3.2-6,6.1-12.3,8.4-18.8
			c6,8.8,11.2,18.1,13.9,28.6c0.2,0.7,1,1.1,1.6,0.6c33.3-27.8,41.4-80.8,18.6-117.6c-12.8-20.6-37.7-35-41.5-60.4
			c-1.2-8.1-0.1-16.1,2.1-23.9c0.8-1.9,1.6-3.9,2.4-5.8l-3.9,3.9c-0.1,0.5-0.3,1-0.5,1.5c-2.2,5.3-4.4,10.6-6.6,15.9
			c0.2-1.3,0.4-2.6,0.6-3.9c1.2-2.6,2.4-5.3,3.6-7.9c0.7-1.6,1.4-3.2,2.2-4.8l-8.5,8.5c-0.2,0.4-0.3,0.7-0.5,1.1
			c-7.2,7.5-14.4,15-22.3,21.8l-11.2,11.3c6.8-4.7,13.1-10.1,19.1-15.8c4.2-3.9,8.2-8,12.2-12.1c-0.4,0.9-0.8,1.9-1.2,2.8
			c-9.8,18-21.9,34.4-38.9,46.8C288.1,689.1,280.2,693.2,271.8,694.6z M259.8,758c8.4-25.3,28.7-42.6,44.9-62.8
			c8.8-11,16.2-23.1,22.7-35.6c-8.6,26-16.9,52.2-23.4,78.8c-3.9,16-7.1,32.1-9.3,48.4c-2.2,16.3-3.3,32.8-4.4,49.2
			c-1.2,18.3-2.6,36.6-5.8,54.7C265.1,849.9,244.8,803.5,259.8,758z M349,801c-6,13.8-14.3,26.5-23,38.8
			c-10.6,15-21.6,29.7-32.8,44.2c-2.4,3.1-4.9,6.3-7.3,9.4c-0.1-0.2-0.2-0.5-0.3-0.7c0.4-0.1,0.8-0.3,0.8-0.8
			c5.9-32.4,5.6-65.5,9.5-98.1c3.9-33.1,12.2-65.6,21.9-97.4c3-9.8,6.1-19.5,9.3-29.3c0,0.4,0,0.8,0,1.2c-2.6,6.9-5,14-6.9,21.2
			c-2.9,11.1-4.7,22.6-3.8,34.1c0.9,11.5,4.7,22.2,10.4,32.2c7.3,12.7,17.3,24.1,25.8,36.2C351.5,795,350.3,798,349,801z
			 M327.3,673.3c0.3,3.8,0.9,7.7,1.9,11.5c3.2,12.5,9.1,24.2,14.5,35.8c5.6,12,11.1,24.4,12.8,37.7c1.3,10.6-0.2,21.2-3.2,31.3
			c-6.1-8.6-12.9-16.9-18.9-25.5c-6.6-9.6-12.3-20-14.8-31.6c-2.4-11.5-1.8-23.3,0.6-34.8C321.8,689.4,324.4,681.3,327.3,673.3z
			 M354.6,791.6c2-6.2,3.4-12.7,4-19.2c1.1-13.3-1.9-26.1-6.8-38.3c-8.5-21.3-22.3-42.1-22.8-65.3c0.7-1.8,1.4-3.6,2.1-5.3
			c2-5.2,4.1-10.3,6.3-15.5c0,3.9,0.4,7.8,1,11.7c2.2,12.5,7.1,24.5,12,36.1c5.6,13.3,11.6,26.5,15.5,40.4
			c3.6,12.5,5.7,25.4,6.3,38.4c0.7,14.6-0.5,29.3-3.6,43.6C365.4,808.6,360.4,799.9,354.6,791.6z M344.5,630.6
			c-0.1,0.8-0.2,1.5-0.3,2.3c-1.1,12,2.2,23.3,8.8,33.3c6.9,10.4,16.2,18.9,24.4,28.3c7.4,8.6,13.3,18.2,16.9,29
			c3.5,10.5,5,21.6,4.6,32.6c-0.9,24.3-11.1,48.4-29.6,64.5c-0.1-0.3-0.2-0.7-0.3-1c0.5,0.4,1.2,0.3,1.4-0.4c5.4-25,5.2-51-0.7-75.9
			c-3.2-13.5-8.3-26.3-13.7-39.1c-5.3-12.6-11-25.2-14.3-38.5c-1.9-7.6-2.6-15.2-2.2-22.9C341,638.8,342.7,634.7,344.5,630.6z
			 M334.1,641.7c0.6-1.5,1.2-3,1.8-4.5c0.9-1.7,1.9-3.5,2.8-5.3c0,0,0,0.1,0,0.1C337.2,635.3,335.7,638.5,334.1,641.7
			C334.2,641.7,334.2,641.7,334.1,641.7z M337.4,642.7c-1.7,4.1-3.4,8.3-5.1,12.4c-1.1,2.6-2.1,5.3-3.2,7.9c0.1-1,0.2-2,0.3-3
			c1.4-4.1,2.7-8.3,4.1-12.4c1.4-3,2.8-5.9,4.2-8.9C337.5,640.1,337.4,641.4,337.4,642.7z"/>
		<path class="st1" d="M321.8,685.1c-7.7,45.2-43,78.9-80.2,102.2c-10.1,6.3-20.5,12.1-31,17.7c-5.1,2.7-10.3,5.4-15.4,8.1
			c-5.1,2.7-10.8,6.2-16.8,6.1c-1.7,0-3.1-0.4-4.2-0.9c1.3-9.6,6.8-18,12.4-25.6c6.1-8.3,12.5-16.3,19-24.2
			c13.2-15.9,27.3-31,41.5-46c7-7.4,14-14.7,20.9-22.2c6.5-7,12.7-14.3,17.4-22.6c9.4-17,11.4-37,20.6-54.1c1-1.8,2-3.5,3-5.3
			l-1.5-1.5c-5.1,8.3-8.8,17.2-11.7,26.5c-3,9.4-5.4,18.9-9.5,27.9c-4.1,9.1-10.2,17-16.8,24.4c-6.8,7.6-13.9,14.9-20.9,22.3
			c-14.3,15.1-28.5,30.3-41.9,46.2c-7.4,8.8-14.6,17.7-21.4,27c-5.8,7.9-11.3,16.3-12.9,26c-6-5.1-4.3-18.2-3.5-24.9
			c1.4-11.8,4.8-23.3,9.3-34.3c8.8-21.8,21.6-41.7,34.2-61.5c11.8-18.7,24.2-37.3,39.5-53.3c7.6-7.9,15.9-15.2,25.1-21.3
			c7.2-4.8,14.9-8.7,22.4-13l-1.5-1.5c-2.5,1.4-5,2.8-7.5,4.1c-9.8,5.4-19.2,11.3-27.8,18.6c-17.2,14.6-30.9,32.9-43.3,51.6
			c-13.3,20-26.5,40.5-37.1,62.1c-5.2,10.6-9.7,21.7-12.6,33.1c-1.4,5.6-2.4,11.3-3,17c-0.5,5.2-1,10.7-0.1,15.9
			c0.8,4.3,2.8,8.4,6.9,10.4c4.5,2.1,9.7,0.8,14.1-1c5.5-2.3,10.8-5.3,16-8.1c5.4-2.8,10.8-5.7,16.2-8.6
			c40.2-22,80.2-50.5,97.8-94.6c4-10.1,6.6-20.7,7.5-31.5c1-13.2-1-26.3-1.4-39.4c-0.1-1.6-0.1-3.1-0.1-4.7l-1.9-1.9
			C321.4,648.6,324.9,666.9,321.8,685.1z"/>
		<path class="st1" d="M137.9,368.8c-39.2-23.8-57.5-69.1-65.4-112.3c-2.2-11.7-3.7-23.5-5-35.4c-0.6-5.8-1.2-11.5-1.8-17.3
			c-0.6-5.7-1.8-12.3,0.5-17.8c0.6-1.5,1.5-2.7,2.4-3.6c8.5,4.7,14.2,12.9,19.3,21c5.5,8.7,10.6,17.6,15.5,26.6
			c9.8,18.2,18.7,36.8,27.5,55.5c4.3,9.2,8.5,18.5,12.9,27.6c4.1,8.6,8.6,17.1,14.6,24.5c12.3,15.1,30.2,24.2,42.7,39.1
			c1.3,1.5,2.5,3.1,3.8,4.8l1.9-0.8c-5.8-7.8-12.7-14.5-20.3-20.6c-7.6-6.2-15.6-12-22.4-19.1c-6.9-7.2-12-15.8-16.5-24.7
			c-4.5-9.1-8.7-18.5-13-27.7c-8.8-18.8-17.6-37.6-27.4-56c-5.4-10.1-11.1-20.1-17.2-29.8c-5.2-8.3-10.9-16.5-19.4-21.6
			c7-3.7,18.5,2.7,24.5,6c10.4,5.7,19.9,13.1,28.4,21.3c17,16.2,30.8,35.5,44.5,54.5c13,17.9,25.7,36.3,34.9,56.4
			c4.6,10,8.2,20.4,10.5,31.1c1.8,8.5,2.6,17.1,3.8,25.7l1.9-0.9c-0.4-2.8-0.7-5.6-1.1-8.5c-1.4-11.1-3.4-22-7.1-32.7
			c-7.3-21.4-19.2-40.8-32-59.3c-13.7-19.7-27.8-39.6-44-57.4c-7.9-8.8-16.6-17-26.2-23.9c-4.7-3.4-9.6-6.4-14.7-9.1
			c-4.6-2.4-9.6-4.9-14.7-5.9c-4.3-0.9-8.9-0.5-12.2,2.6c-3.6,3.4-4.3,8.7-4.3,13.4c0.1,6,1,12,1.6,17.9c0.6,6.1,1.3,12.2,2,18.2
			c5.6,45.5,17.3,93.2,51.8,125.8c7.9,7.4,16.8,13.8,26.5,18.6c11.9,5.8,24.8,8.8,37.2,13.2c1.5,0.5,2.9,1.1,4.4,1.7l2.4-1.1
			C172,381.8,153.6,378.3,137.9,368.8z"/>
	</g>
</g>
<g>
	<g>
		
			<image style="overflow:visible;opacity:0.5;" width="782" height="783" xlink:href="933CB29B.png"  transform="matrix(1 0 0 1 88.8998 51.8998)">
		</image>
		<g>
			<circle class="st2" cx="479.5" cy="442.8" r="359.4"/>
		</g>
	</g>
</g>
</svg>
